<?xml version="1.0" encoding="UTF-8"?>
<svg version="1.1" xmlns="http://www.w3.org/2000/svg" width="1000" height="1000">
<path d="M0 0 C1.72668711 -0.00417906 3.45337147 -0.00965971 5.18005079 -0.01631981 C9.89761503 -0.03071754 14.61500373 -0.02654754 19.33257735 -0.019153 C24.43080046 -0.01440965 29.52898624 -0.02694134 34.62719727 -0.03717041 C44.60356854 -0.05433974 54.57987678 -0.05520245 64.55625898 -0.04995751 C72.66562973 -0.04591181 80.77498187 -0.0473641 88.88435173 -0.05270576 C90.0396509 -0.05345419 91.19495007 -0.05420261 92.3852583 -0.05497371 C94.73240285 -0.05650522 97.0795474 -0.05804357 99.42669194 -0.05958868 C121.42139575 -0.07330647 143.41606396 -0.06788064 165.41076695 -0.05640347 C185.52643854 -0.04646744 205.64201819 -0.05941944 225.7576756 -0.08333766 C246.42491498 -0.1077262 267.09211154 -0.11733739 287.75936502 -0.11068493 C299.35757938 -0.10719274 310.955723 -0.10942505 322.55392647 -0.12693596 C332.42488718 -0.14165465 342.29572731 -0.14229743 352.16668565 -0.12486505 C357.20099475 -0.11635084 362.23508841 -0.11421602 367.26938629 -0.1295166 C371.88149487 -0.14336042 376.49320338 -0.1386044 381.1052888 -0.11927737 C382.76998578 -0.1155162 384.43471479 -0.11844268 386.09938324 -0.12888902 C398.17914899 -0.19927885 408.10479155 1.1435173 418.00816345 8.62986755 C423.52543631 14.15942832 424.99206447 19.99243274 426.66441345 27.4462738 C426.91778976 28.53951462 427.17116608 29.63275543 427.43222046 30.75912476 C430.42619043 43.91761611 432.87834927 57.18128742 435.3245697 70.45018005 C436.23907908 75.37921417 437.15768566 80.30747191 438.07847595 85.2353363 C438.30001846 86.42530212 438.52156097 87.61526794 438.74981689 88.84129333 C440.43326574 97.81619945 442.25585029 106.75698123 444.20056152 115.67895508 C446.15780104 124.79354545 447.9242507 133.17915777 443.2620697 141.76268005 C437.12356086 150.56826515 428.12760911 156.03720885 419.45347595 162.0868988 C412.26259764 167.11885985 405.23346261 172.37159926 398.18247986 177.59666443 C394.95372708 179.98582424 391.71714699 182.36426526 388.4808197 184.7431488 C372.96239724 196.15523545 357.60043979 207.76539696 342.29136658 219.45652771 C339.9544236 221.24081526 337.61624681 223.02347111 335.2776947 224.8056488 C321.55635921 235.2693897 307.8800454 245.78132711 294.51963806 256.7040863 C289.7439312 260.6050497 284.91322233 264.42813411 280.05235291 268.22215271 C275.55481646 271.74196384 271.12187515 275.33647959 266.6995697 278.95018005 C261.83800893 282.92151378 256.94159876 286.83151992 251.9495697 290.63768005 C246.10974004 295.0909481 240.4288137 299.7170434 234.7620697 304.38768005 C227.1710009 310.60358493 219.56194203 316.79197152 211.8245697 322.82518005 C205.8213452 327.5068859 199.94673112 332.3340727 194.08531189 337.19163513 C189.63523521 340.87096337 185.1360959 344.472786 180.5745697 348.01268005 C175.15014871 352.22693042 169.91707879 356.62844819 164.72349548 361.12303162 C160.74675877 364.56037944 156.69732696 367.87999709 152.5745697 371.1415863 C143.01125597 378.77895491 133.61376492 386.62764072 124.29185486 394.55711365 C121.00064742 397.35293708 117.67654633 400.10261388 114.3245697 402.82518005 C109.45998346 406.78340962 104.70144793 410.85417067 99.95152283 414.94822693 C96.44990619 417.95999993 92.91429378 420.91819696 89.3245697 423.82518005 C84.21899506 427.96828996 79.26406917 432.26998456 74.30918884 436.59056091 C69.82456119 440.49189646 65.257253 444.27253167 60.6370697 448.01268005 C57.12659332 450.91263881 53.69374243 453.89526143 50.2620697 456.88768005 C45.97990866 460.62172448 41.67875702 464.31226651 37.2620697 467.88768005 C32.22778698 471.96589722 27.33696262 476.19385063 22.45176697 480.44798279 C17.86934586 484.43620367 13.25075565 488.37775819 8.60630798 492.29344177 C4.64106947 495.63839244 0.69741842 499.00762927 -3.2379303 502.38768005 C-8.25269762 506.69405701 -13.28726972 510.97582344 -18.33900452 515.23875427 C-22.36655595 518.64085641 -26.36684848 522.07371026 -30.3629303 525.51268005 C-34.4241784 529.00587487 -38.51311809 532.45216557 -42.6754303 535.82518005 C-47.11032347 539.42404035 -51.43360815 543.1350007 -55.7379303 546.88768005 C-60.8937293 551.38271082 -66.11303697 555.77391057 -71.42933655 560.0790863 C-74.74091623 562.8011219 -77.9910303 565.58911145 -81.2379303 568.38768005 C-86.25103089 572.70707591 -91.3233074 576.93865441 -96.46058655 581.1103363 C-99.58189397 583.66972059 -102.6624306 586.27361796 -105.7379303 588.88768005 C-110.58747081 593.00875797 -115.48953994 597.05759488 -120.4254303 601.07518005 C-123.55592728 603.64914424 -126.64964308 606.26338429 -129.7379303 608.88768005 C-134.68086635 613.08767517 -139.6696015 617.22548385 -144.70277405 621.31736755 C-146.60934569 622.8743521 -148.50631557 624.44026369 -150.39637756 626.01707458 C-151.33408997 626.79937439 -152.27180237 627.58167419 -153.2379303 628.38768005 C-143.02938636 626.02190225 -132.84453907 623.56561826 -122.6676178 621.06736755 C-78.9199127 610.34188748 -35.21622488 599.680616 9.48051453 593.6962738 C11.73599646 593.39120661 13.98956839 593.07450878 16.24302673 592.75486755 C90.66431368 582.29547703 174.98571142 588.73262017 242.7620697 622.38768005 C244.04694275 623.01392273 244.04694275 623.01392273 245.35777283 623.65281677 C264.25651042 632.90761815 280.88464471 645.07664778 296.40660095 659.2509613 C298.43200942 661.08827213 300.49038225 662.86808694 302.5745697 664.63768005 C312.20577104 673.06010714 320.91705856 682.28511175 328.7620697 692.38768005 C329.56128845 693.3931488 330.3605072 694.39861755 331.1839447 695.43455505 C340.58504243 707.33967491 348.59754227 719.9290769 356.2620697 733.01268005 C356.87405212 734.05657898 357.48603455 735.10047791 358.11656189 736.17601013 C358.69051697 737.16625183 359.26447205 738.15649353 359.8558197 739.17674255 C360.36822205 740.06055603 360.88062439 740.94436951 361.40855408 741.85496521 C362.72386691 744.31619453 363.77981274 746.77790066 364.7620697 749.38768005 C361.38140429 751.5993345 357.98040766 753.77752898 354.5745697 755.95018005 C353.61486267 756.57859802 352.65515564 757.20701599 351.66636658 757.85447693 C350.73501892 758.44422302 349.80367126 759.03396912 348.84410095 759.6415863 C347.56369934 760.46638489 347.56369934 760.46638489 346.25743103 761.30784607 C343.20021289 762.63081602 341.89379347 762.40968343 338.7620697 761.38768005 C336.682724 760.48655701 336.682724 760.48655701 334.58628845 759.3759613 C333.77538757 758.9550824 332.96448669 758.53420349 332.12901306 758.10057068 C331.24479675 757.63844177 330.36058044 757.17631287 329.4495697 756.70018005 C274.99750785 728.93577476 216.52747888 709.05158079 155.2620697 705.13768005 C154.01208191 705.05743591 152.76209412 704.97719177 151.47422791 704.89451599 C133.77621876 703.90186694 116.08430567 704.35011175 98.3870697 705.13768005 C97.41719116 705.18058167 96.44731262 705.22348328 95.44804382 705.26768494 C76.6306278 706.12478023 57.99015566 707.79658907 39.29618835 710.0790863 C36.66500326 710.39950038 34.03318403 710.71427481 31.40122986 711.02830505 C2.25318891 714.52139539 -26.75978183 718.78815927 -55.77406311 723.2431488 C-139.59828027 736.10683106 -139.59828027 736.10683106 -165.2379303 738.38768005 C-166.44191467 738.49515564 -167.64589905 738.60263123 -168.8863678 738.71336365 C-185.2577487 740.10309841 -201.66950585 740.66537144 -218.08985901 741.11146545 C-220.21751581 741.17025693 -222.34505062 741.23365735 -224.47242737 741.30183411 C-227.46832009 741.39487004 -230.46398439 741.46652148 -233.46058655 741.5322113 C-234.35924942 741.56319916 -235.25791229 741.59418701 -236.18380737 741.62611389 C-242.02231015 741.72245179 -246.32465856 740.99132871 -250.8551178 736.94236755 C-270.29923833 710.97661654 -274.93255134 673.69004809 -278.2379303 642.38768005 C-278.33291809 641.50515564 -278.42790588 640.62263123 -278.52577209 639.71336365 C-279.34372681 631.1886381 -279.49143854 622.67145092 -279.53309631 614.11375427 C-279.54470304 612.45579046 -279.56528917 610.79786645 -279.59461975 609.14012146 C-279.63744872 606.70676586 -279.65347161 604.27449128 -279.66371155 601.84080505 C-279.68121964 601.11041016 -279.69872772 600.38001526 -279.71676636 599.62748718 C-279.68787756 592.70113692 -277.17433703 587.30761664 -272.5035553 582.2275238 C-271.50934806 581.24877397 -270.50379129 580.28143614 -269.4879303 579.32518005 C-268.95280823 578.80697693 -268.41768616 578.2887738 -267.86634827 577.75486755 C-263.77728837 573.82227365 -259.5738369 570.04610125 -255.2379303 566.38768005 C-252.94355473 564.43251103 -250.65318615 562.47267195 -248.3629303 560.51268005 C-247.7542511 559.99278503 -247.1455719 559.47289001 -246.51844788 558.9372406 C-242.98111204 555.90855367 -239.49379753 552.83600571 -236.0504303 549.70018005 C-232.7370995 546.68953527 -229.34851101 543.82202827 -225.8629303 541.01268005 C-221.30852107 537.33066471 -217.00045465 533.45867648 -212.71669006 529.47190857 C-209.50529623 526.50081255 -206.21183267 523.68821418 -202.8004303 520.95018005 C-197.37884686 516.58627547 -192.30950913 511.90346475 -187.2223053 507.16111755 C-182.60439269 502.85662492 -177.83031423 498.744556 -173.0269928 494.6493988 C-171.82630989 493.62484913 -170.62579409 492.60010359 -169.4254303 491.57518005 C-168.81924866 491.05786316 -168.21306702 490.54054626 -167.58851624 490.0075531 C-163.84722209 486.80265776 -160.17677647 483.53558728 -156.5504303 480.20018005 C-153.11894885 477.0484118 -149.6264652 474.04743625 -145.9879303 471.13768005 C-139.93757679 466.25920277 -134.3350416 460.94503989 -128.6832428 455.6181488 C-125.56017107 452.67735426 -122.37520937 449.82368828 -119.12464905 447.0243988 C-116.80134242 445.00894233 -114.52044565 442.94919543 -112.2379303 440.88768005 C-106.90230393 436.07753204 -101.52206149 431.32787768 -96.0504303 426.6728363 C-90.29528188 421.77193639 -84.58885863 416.84586364 -79.0504303 411.70018005 C-74.52594929 407.49738696 -69.82979293 403.57078792 -65.0191803 399.70018005 C-61.99773694 397.18796872 -59.11352952 394.56365548 -56.2379303 391.88768005 C-51.62791391 387.59810245 -46.86009794 383.58357108 -41.95277405 379.6337738 C-39.13119535 377.29937416 -36.43202318 374.86777407 -33.7379303 372.38768005 C-29.29065918 368.29416914 -24.69075567 364.46325507 -19.9879303 360.66893005 C-17.15693451 358.32049037 -14.44409432 355.87858103 -11.7379303 353.38768005 C-7.37023537 349.37162159 -2.86943794 345.59382551 1.7464447 341.8681488 C5.30877193 338.93799623 8.78677766 335.92005127 12.2620697 332.88768005 C17.3941889 328.41215889 22.59392974 324.04760288 27.8870697 319.76268005 C31.39754724 316.86272035 34.83036905 313.88006811 38.2620697 310.88768005 C43.41782686 306.39260308 48.63717849 302.00144783 53.95347595 297.6962738 C57.26505791 294.97423634 60.51510851 292.18618046 63.7620697 289.38768005 C69.68310827 284.28798306 75.69060232 279.30781733 81.7620697 274.38768005 C87.66592624 269.59025637 93.52946347 264.75313536 99.3245697 259.82518005 C103.79794246 256.02326822 108.32551973 252.30885236 112.9261322 248.66111755 C116.60874566 245.70893982 120.24741816 242.70506073 123.8870697 239.70018005 C131.48409936 233.4306808 139.11765076 227.20789092 146.76939392 221.00535583 C148.79159271 219.36371295 150.81046808 217.7180649 152.82847595 216.0712738 C160.84196824 209.53559688 168.91181483 203.08174661 177.06187439 196.7172699 C179.31293829 194.9568888 181.55780591 193.1886976 183.80284119 191.42063904 C220.59970596 162.455131 257.95453362 134.17199574 296.28208923 107.2563324 C296.94321716 106.7917865 297.60434509 106.3272406 298.2855072 105.84861755 C298.86220154 105.44433533 299.43889587 105.0400531 300.0330658 104.6235199 C301.96615408 103.2418067 303.86306112 101.81575779 305.7620697 100.38768005 C271.55344909 100.34175333 237.34483561 100.30658548 203.13619075 100.28554939 C199.08391207 100.28304843 195.03163345 100.28045974 190.97935486 100.27781677 C189.76941414 100.27702984 189.76941414 100.27702984 188.53503017 100.27622701 C175.52900107 100.26755959 162.52298993 100.25181014 149.51697142 100.23337446 C136.1397602 100.21457288 122.76255827 100.20354182 109.38533437 100.19950306 C101.15218009 100.19677911 92.91907656 100.18822356 84.68593793 100.17184712 C79.01559394 100.16115309 73.34527561 100.15810699 67.6749223 100.1606773 C64.41908405 100.16193963 61.16335022 100.15906703 57.90752411 100.1492691 C11.59210066 100.01689478 -26.37466074 104.878972 -63.2379303 134.38768005 C-63.92161682 134.93392029 -64.60530334 135.48016052 -65.30970764 136.04295349 C-69.38054356 139.30682892 -73.42433618 142.60242529 -77.45277405 145.91844177 C-79.97981271 147.998272 -82.51561436 150.06734033 -85.0504303 152.13768005 C-86.77970562 153.55421409 -88.50887033 154.97088316 -90.2379303 156.38768005 C-92.30016654 158.07550263 -94.36281321 159.76282282 -96.4254303 161.45018005 C-97.34710999 162.20428162 -98.26878967 162.95838318 -99.21839905 163.7353363 C-99.88484436 164.28060974 -100.55128967 164.82588318 -101.2379303 165.38768005 C-108.29576848 160.12889867 -115.26891138 154.7631733 -122.2379303 149.38768005 C-121.65899846 144.96822856 -120.02057848 142.02737713 -117.6754303 138.26268005 C-116.85127474 136.92229518 -116.02846986 135.58107932 -115.2066803 134.23924255 C-114.74003967 133.48030701 -114.27339905 132.72137146 -113.7926178 131.93943787 C-110.7033348 126.86889988 -107.69660478 121.74897755 -104.6754303 116.63768005 C-103.63187171 114.87473936 -102.58793767 113.11202138 -101.54397583 111.34931946 C-100.47935874 109.55167753 -99.41501709 107.75387276 -98.35072327 105.95603943 C-94.32207733 99.1513226 -90.28968211 92.34882578 -86.25721741 85.54637146 C-83.18006883 80.35493499 -80.10412504 75.16280046 -77.03358459 69.967453 C-75.61074773 67.56022656 -74.18706262 65.15350229 -72.76332092 62.74681091 C-71.78008072 61.08396444 -70.79804102 59.42040829 -69.8160553 57.75682068 C-56.97214989 36.04900156 -56.97214989 36.04900156 -49.6754303 26.13768005 C-49.11388245 25.37044617 -48.55233459 24.60321228 -47.97377014 23.81272888 C-46.88042392 22.32288228 -45.78454289 20.83489131 -44.6856842 19.34910583 C-43.47752207 17.71228044 -42.28366016 16.06491216 -41.09339905 14.4150238 C-30.6303745 0.26750303 -16.51000638 -0.06540444 0 0 Z " fill="#F04F00" transform="translate(411.23793029785156,122.61231994628906)"/>
</svg>
